<svg width="24" height="25" viewBox="0 0 24 25" fill="none" xmlns="http://www.w3.org/2000/svg">
<g id="Standard Collection 0">
<g id="Clip path group">
<mask id="mask0_1606_3533" style="mask-type:luminance" maskUnits="userSpaceOnUse" x="0" y="0" width="24" height="25">
<g id="clip0">
<path id="Vector" d="M24 0H0V24.251H24V0Z" fill="white"/>
</g>
</mask>
<g mask="url(#mask0_1606_3533)">
<g id="Group">
<path id="Vector_2" d="M20.4724 20.6808C22.7355 18.4091 24.0042 15.332 23.9998 12.1255C23.9974 11.9276 23.9171 11.7386 23.7763 11.5995C23.6355 11.4603 23.4456 11.3824 23.2477 11.3824C23.0497 11.3824 22.8598 11.4603 22.7189 11.5995C22.5781 11.7386 22.4979 11.9276 22.4954 12.1255C22.4986 14.9355 21.3863 17.6321 19.4028 19.6226C18.4399 20.6111 17.2888 21.3968 16.0172 21.9334C14.7458 22.4698 13.3798 22.7462 11.9998 22.7462C10.6198 22.7462 9.25375 22.4698 7.9823 21.9334C6.71084 21.3968 5.55971 20.6111 4.59681 19.6226C2.61599 17.6301 1.50416 14.9347 1.50416 12.1251C1.50416 9.31544 2.61599 6.62001 4.59681 4.62749C5.5541 3.64654 6.69659 2.86537 7.95805 2.32928C9.21951 1.79321 10.5748 1.51286 11.9455 1.50452C12.2381 1.51368 12.5156 1.63683 12.7188 1.84768C12.9219 2.05852 13.0347 2.3404 13.0329 2.63319C13.0313 2.92598 12.9152 3.20653 12.7097 3.415C12.5041 3.62347 12.2251 3.74337 11.9324 3.74913C11.9053 3.74919 11.8782 3.75069 11.8513 3.75363C9.76601 3.82079 7.78744 4.69148 6.32926 6.18364C4.78931 7.73385 3.92503 9.83024 3.92503 12.0153C3.92503 14.2004 4.78931 16.2968 6.32926 17.847C7.08157 18.6177 7.98042 19.23 8.97292 19.6481C9.9654 20.0662 11.0315 20.2816 12.1085 20.2816C13.1854 20.2816 14.2515 20.0662 15.244 19.6481C16.2364 19.23 17.1353 18.6177 17.8877 17.847C19.43 16.2984 20.2946 14.201 20.2916 12.0153C20.2947 11.6711 20.2296 11.3295 20.1001 11.0105C19.9705 10.6916 19.7791 10.4014 19.5367 10.1569C19.2943 9.9123 19.006 9.71817 18.6882 9.58569C18.3704 9.4532 18.0296 9.38499 17.6853 9.38499C17.3409 9.38499 17.0001 9.4532 16.6823 9.58569C16.3645 9.71817 16.0762 9.9123 15.8338 10.1569C15.5915 10.4014 15.4 10.6916 15.2704 11.0105C15.1409 11.3295 15.0758 11.6711 15.079 12.0153C15.079 12.0373 15.0804 12.0579 15.0821 12.079C15.0804 12.1001 15.079 12.1211 15.079 12.1426C15.0839 12.7428 14.9104 13.331 14.5804 13.8325C14.2506 14.3339 13.7791 14.726 13.226 14.9591C12.6729 15.1922 12.0629 15.2557 11.4737 15.1417C10.8844 15.0275 10.3422 14.741 9.91607 14.3183C9.4899 13.8956 9.1989 13.3559 9.07999 12.7675C8.96108 12.1792 9.01962 11.5688 9.24818 11.0138C9.47673 10.4587 9.86501 9.98412 10.3637 9.65012C10.8625 9.31613 11.4492 9.13781 12.0494 9.13779C12.149 9.139 12.2478 9.12042 12.3401 9.08317C12.4324 9.0459 12.5164 8.99069 12.5872 8.92073C12.658 8.85076 12.7143 8.76744 12.7526 8.67557C12.791 8.58372 12.8107 8.48516 12.8107 8.38561C12.8107 8.28607 12.791 8.18751 12.7526 8.09566C12.7143 8.00379 12.658 7.92047 12.5872 7.8505C12.5164 7.78054 12.4324 7.72533 12.3401 7.68806C12.2478 7.6508 12.149 7.63223 12.0494 7.63344C11.1587 7.63838 10.2893 7.90705 9.55101 8.40554C8.81276 8.90403 8.23868 9.61002 7.90121 10.4344C7.56376 11.2588 7.47803 12.1647 7.65484 13.0378C7.83166 13.9109 8.2631 14.7119 8.89474 15.3401C9.52637 15.9682 10.3299 16.3952 11.204 16.5672C12.0779 16.7391 12.9834 16.6483 13.8059 16.3063C14.6284 15.9643 15.3312 15.3864 15.8256 14.6453C16.32 13.9043 16.5837 13.0334 16.5837 12.1426C16.5837 12.1207 16.5823 12.1001 16.5806 12.079C16.5823 12.0579 16.5837 12.0368 16.5837 12.0153C16.5808 11.8688 16.6071 11.7231 16.6612 11.5868C16.7152 11.4506 16.796 11.3264 16.8986 11.2218C17.0012 11.1171 17.1237 11.0339 17.2588 10.9771C17.3939 10.9204 17.5392 10.8912 17.6857 10.8912C17.8322 10.8912 17.9775 10.9204 18.1126 10.9771C18.2477 11.0339 18.3702 11.1171 18.4728 11.2218C18.5754 11.3264 18.6561 11.4506 18.7101 11.5868C18.7643 11.7231 18.7906 11.8688 18.7876 12.0153C18.7896 13.8047 18.0813 15.5217 16.8182 16.7892C16.2058 17.4184 15.4736 17.9183 14.6647 18.2598C13.8558 18.6013 12.9867 18.7771 12.1087 18.7771C11.2308 18.7771 10.3617 18.6013 9.55279 18.2598C8.74392 17.9183 8.01167 17.4184 7.39926 16.7892C6.13788 15.5206 5.42985 13.8043 5.42985 12.0153C5.42985 10.2263 6.13788 8.51007 7.39926 7.24146C8.01215 6.61309 8.74443 6.11355 9.55309 5.77216C10.3617 5.43077 11.2304 5.25443 12.1082 5.25348C12.1757 5.2533 12.2429 5.244 12.308 5.22582C12.9484 5.12761 13.5298 4.79644 13.941 4.29584C14.3522 3.79523 14.564 3.16043 14.5359 2.51324C14.5078 1.86604 14.2417 1.252 13.7887 0.788929C13.3357 0.325852 12.7277 0.0463392 12.0812 0.00401218C12.0542 0.001071 12.027 -0.000431301 11.9998 -0.000488281C11.9846 -0.000488281 11.9696 -0.000488281 11.9545 -0.000488281C11.947 -0.000488281 11.9397 -0.000488281 11.9325 -0.000488281C11.9253 -0.000488281 11.9178 0.000389247 11.9106 0.00060878C10.3468 0.0129065 8.80099 0.334617 7.36218 0.947193C5.92336 1.55976 4.62005 2.45109 3.52736 3.56978C1.26803 5.8439 0 8.91939 0 12.1251C0 15.3307 1.26803 18.4061 3.52736 20.6803C4.63015 21.8103 5.94786 22.7084 7.40293 23.3215C8.858 23.9346 10.421 24.2505 12 24.2505C13.579 24.2505 15.142 23.9346 16.5971 23.3215C18.0522 22.7084 19.3698 21.8103 20.4727 20.6803L20.4724 20.6808Z" fill="url(#paint0_linear_1606_3533)"/>
</g>
</g>
</g>
</g>
<defs>
<linearGradient id="paint0_linear_1606_3533" x1="3.47997" y1="20.6371" x2="18.7312" y2="5.71181" gradientUnits="userSpaceOnUse">
<stop stop-color="#41287B"/>
<stop offset="0.123" stop-color="#462779"/>
<stop offset="0.284" stop-color="#572775"/>
<stop offset="0.465" stop-color="#72266E"/>
<stop offset="0.663" stop-color="#982565"/>
<stop offset="0.87" stop-color="#C82459"/>
<stop offset="0.99" stop-color="#E72452"/>
</linearGradient>
</defs>
</svg>
