<svg width="24" height="24" viewBox="0 0 24 24" fill="none" xmlns="http://www.w3.org/2000/svg">
<g id="Standard Collection 3">
<g id="Clip path group">
<mask id="mask0_1606_3544" style="mask-type:luminance" maskUnits="userSpaceOnUse" x="0" y="0" width="24" height="24">
<g id="clip0">
<path id="Vector" d="M24 0H0V24H24V0Z" fill="white"/>
</g>
</mask>
<g mask="url(#mask0_1606_3544)">
<g id="Group">
<path id="Vector_2" d="M2.34903 10.5244C2.25156 10.1607 2.25154 9.77773 2.34899 9.41403C2.44644 9.05034 2.63792 8.7187 2.90417 8.45247L8.45234 2.9043C8.71857 2.63804 9.05021 2.44657 9.4139 2.34912C9.7776 2.25167 10.1605 2.25168 10.5242 2.34916L15.7159 3.74027C15.77 3.02903 16.0176 2.34611 16.432 1.7655L10.179 0.0901851C9.73013 -0.0300642 9.25757 -0.0300618 8.80875 0.090193C8.35993 0.210448 7.95067 0.446719 7.6221 0.775261L0.775259 7.6221C0.446717 7.95068 0.210447 8.35993 0.0901931 8.80875C-0.0300617 9.25757 -0.0300643 9.73014 0.0901851 10.179L1.82995 16.6718C2.39869 16.2375 3.07581 15.9677 3.7874 15.8921L2.34903 10.5244Z" fill="#18CDCA"/>
<path id="Vector_3" d="M20.1645 7.92835L21.6509 13.4755C21.7484 13.8392 21.7483 14.2221 21.6509 14.5858C21.5534 14.9495 21.3619 15.2811 21.0956 15.5474L15.5475 21.0957C15.2812 21.3619 14.9496 21.5533 14.5859 21.6508C14.2222 21.7482 13.8392 21.7482 13.4756 21.6508L8.10785 20.2124C8.03222 20.9241 7.7625 21.6012 7.32812 22.1699L13.821 23.9096C14.2697 24.0299 14.7423 24.0299 15.1911 23.9096C15.64 23.7893 16.0492 23.5532 16.3778 23.2246L23.2247 16.3777C23.5533 16.0491 23.7894 15.6399 23.9097 15.191C24.03 14.7422 24.03 14.2696 23.9097 13.8209L22.1044 7.08496C21.5477 7.53935 20.8764 7.8312 20.1645 7.92835Z" fill="#18CDCA"/>
<path id="Vector_4" d="M1.98635 17.5674C1.54663 18.007 1.24717 18.5674 1.12585 19.1772C1.00453 19.7872 1.06679 20.4194 1.30477 20.9939C1.54273 21.5683 1.94573 22.0594 2.46278 22.4049C2.97984 22.7503 3.58772 22.9348 4.20959 22.9348C4.83144 22.9348 5.43934 22.7503 5.95639 22.4049C6.47345 22.0594 6.87645 21.5683 7.11441 20.9939C7.35239 20.4194 7.41465 19.7872 7.29332 19.1772C7.17201 18.5674 6.87255 18.007 6.43283 17.5674C5.84273 16.9786 5.04318 16.6479 4.20959 16.6479C3.37601 16.6479 2.57645 16.9786 1.98635 17.5674Z" fill="#4F80E1"/>
<path id="Vector_5" d="M17.4043 1.82421C16.9646 2.26393 16.665 2.82416 16.5438 3.43407C16.4225 4.04398 16.4847 4.67617 16.7227 5.25069C16.9607 5.82521 17.3637 6.31627 17.8807 6.66175C18.3978 7.00724 19.0057 7.19165 19.6275 7.19165C20.2494 7.19165 20.8573 7.00724 21.3744 6.66175C21.8914 6.31627 22.2943 5.82521 22.5323 5.25069C22.7703 4.67617 22.8325 4.04398 22.7112 3.43407C22.59 2.82416 22.2904 2.26393 21.8508 1.82421C21.2607 1.23544 20.4611 0.904785 19.6275 0.904785C18.794 0.904785 17.9943 1.23544 17.4043 1.82421Z" fill="#4F80E1"/>
<path id="Vector_6" d="M13.8456 20.3344C13.7194 20.3344 13.5937 20.3179 13.4717 20.2852L8.55826 18.9685C8.39442 18.0936 7.96997 17.2887 7.34058 16.6593C6.71117 16.03 5.90623 15.6054 5.03134 15.4416L3.71483 10.5285C3.64956 10.2835 3.64974 10.0256 3.71539 9.78062C3.78103 9.53565 3.90982 9.31221 4.08887 9.13261L9.13202 4.08933C9.31141 3.90993 9.53486 3.78092 9.77992 3.71525C10.025 3.64959 10.283 3.6496 10.5281 3.71529L15.3038 4.99495C15.4932 5.86443 15.9408 6.65642 16.588 7.26719C17.2352 7.87795 18.0518 8.27903 18.9307 8.41785L20.2847 13.4722C20.35 13.7173 20.3498 13.9753 20.2841 14.2202C20.2185 14.4652 20.0897 14.6886 19.9106 14.8683L14.8674 19.9114C14.7336 20.0459 14.5742 20.1526 14.3988 20.2252C14.2235 20.2978 14.0355 20.3349 13.8456 20.3344Z" fill="#4F80E1"/>
</g>
</g>
</g>
</g>
</svg>
