<svg width="24" height="24" viewBox="0 0 24 24" fill="none" xmlns="http://www.w3.org/2000/svg">
<g id="Standard Collection 2">
<path id="Vector" d="M14.7698 5.53824C11.7112 5.53824 5.58445 3.05876 5.58445 0H5.53916C5.53916 2.44809 6.51163 4.79591 8.24267 6.527C9.97369 8.25809 12.3215 9.23066 14.7696 9.23075C16.2384 9.23075 17.6471 9.81425 18.6858 10.8529C19.7245 11.8915 20.308 13.3003 20.308 14.7691C20.3084 16.2379 19.7251 17.6469 18.6866 18.6857C17.6482 19.7246 16.2396 20.3084 14.7707 20.3087C13.3018 20.3089 11.8929 19.7257 10.854 18.6872C9.81518 17.6488 9.23139 16.2401 9.2311 14.7713C9.23106 13.5591 8.99227 12.3587 8.52835 11.2388C8.06442 10.1189 7.38446 9.10132 6.52727 8.24419C5.67008 7.38706 4.65247 6.70715 3.53251 6.2433C2.41256 5.77945 1.21221 5.54073 0 5.54078V5.58571C3.05819 5.58571 5.53767 11.7098 5.53882 14.769H5.53824C5.53823 16.5947 6.07957 18.3794 7.09382 19.8974C8.10808 21.4154 9.5497 22.5985 11.2364 23.2972C12.9231 23.9959 14.779 24.1788 16.5697 23.8226C18.3602 23.4666 20.005 22.5874 21.2961 21.2966C22.587 20.0057 23.4662 18.361 23.8225 16.5704C24.1788 14.7798 23.9961 12.9239 23.2975 11.2371C22.599 9.55038 21.4159 8.10866 19.8981 7.09427C18.3801 6.07988 16.5954 5.53838 14.7698 5.53824Z" fill="url(#paint0_linear_1606_3547)"/>
</g>
<defs>
<linearGradient id="paint0_linear_1606_3547" x1="19.128" y1="20.76" x2="5.184" y2="1.608" gradientUnits="userSpaceOnUse">
<stop offset="0.295" stop-color="#E73959"/>
<stop offset="0.384" stop-color="#E73D58"/>
<stop offset="0.477" stop-color="#E74955"/>
<stop offset="0.571" stop-color="#E95E51"/>
<stop offset="0.666" stop-color="#EA7B4B"/>
<stop offset="0.761" stop-color="#EDA044"/>
<stop offset="0.857" stop-color="#EFCE3B"/>
<stop offset="0.868" stop-color="#F0D43A"/>
</linearGradient>
</defs>
</svg>
