<svg width="28" height="28" viewBox="0 0 28 28" fill="none" xmlns="http://www.w3.org/2000/svg">
<g id="ion:filter">
<path id="Vector" d="M25.8125 9.1875H2.1875C1.8394 9.1875 1.50556 9.04922 1.25942 8.80308C1.01328 8.55694 0.875 8.2231 0.875 7.875C0.875 7.5269 1.01328 7.19306 1.25942 6.94692C1.50556 6.70078 1.8394 6.5625 2.1875 6.5625H25.8125C26.1606 6.5625 26.4944 6.70078 26.7406 6.94692C26.9867 7.19306 27.125 7.5269 27.125 7.875C27.125 8.2231 26.9867 8.55694 26.7406 8.80308C26.4944 9.04922 26.1606 9.1875 25.8125 9.1875ZM21.4375 15.3125H6.5625C6.2144 15.3125 5.88056 15.1742 5.63442 14.9281C5.38828 14.6819 5.25 14.3481 5.25 14C5.25 13.6519 5.38828 13.3181 5.63442 13.0719C5.88056 12.8258 6.2144 12.6875 6.5625 12.6875H21.4375C21.7856 12.6875 22.1194 12.8258 22.3656 13.0719C22.6117 13.3181 22.75 13.6519 22.75 14C22.75 14.3481 22.6117 14.6819 22.3656 14.9281C22.1194 15.1742 21.7856 15.3125 21.4375 15.3125ZM16.1875 21.4375H11.8125C11.4644 21.4375 11.1306 21.2992 10.8844 21.0531C10.6383 20.8069 10.5 20.4731 10.5 20.125C10.5 19.7769 10.6383 19.4431 10.8844 19.1969C11.1306 18.9508 11.4644 18.8125 11.8125 18.8125H16.1875C16.5356 18.8125 16.8694 18.9508 17.1156 19.1969C17.3617 19.4431 17.5 19.7769 17.5 20.125C17.5 20.4731 17.3617 20.8069 17.1156 21.0531C16.8694 21.2992 16.5356 21.4375 16.1875 21.4375Z" fill="#14131E"/>
</g>
</svg>
