<svg width="18" height="19" viewBox="0 0 18 19" fill="none" xmlns="http://www.w3.org/2000/svg">
<g id="noun_question mark_480586 1">
<path id="Vector" d="M10.4762 15.3902V16.8302C10.4762 17.3162 10.0802 17.6942 9.61219 17.6942H7.39819C6.91219 17.6942 6.53419 17.2982 6.53419 16.8302V15.3902C6.53419 14.9042 6.93019 14.5262 7.39819 14.5262H9.61219C10.0982 14.5082 10.4762 14.9042 10.4762 15.3902ZM13.2842 1.71015C12.2042 0.774152 10.7462 0.306152 8.87419 0.306152C7.12819 0.306152 5.72419 0.720152 4.66219 1.53015C3.72619 2.25015 3.22219 3.27615 3.11419 4.62615C3.09619 4.93215 3.34819 5.20215 3.65419 5.22015L6.17419 5.27415C6.58819 5.27415 6.96619 5.02215 7.07419 4.64415C7.16419 4.32015 7.32619 4.06815 7.54219 3.85215C7.90219 3.52815 8.33419 3.36615 8.85619 3.36615C9.50419 3.36615 10.0082 3.56415 10.3682 3.96015C10.7282 4.35615 10.8902 4.87815 10.8902 5.54415C10.8902 6.17415 10.7462 6.75015 10.4402 7.23615C10.1342 7.72215 9.72019 8.13615 9.19819 8.46015C8.17219 9.18015 7.47019 9.81015 7.09219 10.3502C6.78619 10.7822 6.60619 11.3762 6.53419 12.1502C6.49819 12.5102 6.78619 12.8162 7.14619 12.8162H9.90019C10.2062 12.8162 10.4762 12.5822 10.5122 12.2762C10.5482 11.8802 10.6382 11.5382 10.7462 11.2682C10.9262 10.8902 11.2682 10.5302 11.7722 10.2062C12.6722 9.73815 13.4102 9.09015 14.0042 8.26215C14.5802 7.43415 14.8862 6.53415 14.8862 5.56215C14.8862 3.92415 14.3462 2.66415 13.2842 1.71015Z" fill="#ED731A"/>
</g>
</svg>
